<mxfile host="app.diagrams.net" modified="2023-12-14T13:56:36.618Z" agent="Mozilla/5.0 (Windows NT 10.0; Win64; x64) AppleWebKit/537.36 (KHTML, like Gecko) Chrome/119.0.0.0 Safari/537.36" etag="MJ1_peyKbZnlU5heN7oe" version="22.1.8" type="github">
  <diagram name="Page-1" id="vfPSJDQwJDfUlzHKymxv">
    <mxGraphModel dx="743" dy="1993" grid="1" gridSize="10" guides="1" tooltips="1" connect="1" arrows="1" fold="1" page="1" pageScale="1" pageWidth="900" pageHeight="1600" math="0" shadow="0">
      <root>
        <mxCell id="0" />
        <mxCell id="1" parent="0" />
        <mxCell id="66kblcKJQWJvaiCAF5dI-1" value="Запись к врачу через сайт" style="swimlane;html=1;childLayout=stackLayout;resizeParent=1;resizeParentMax=0;horizontal=1;startSize=20;horizontalStack=0;whiteSpace=wrap;" vertex="1" parent="1">
          <mxGeometry x="30" y="-10" width="810" height="240" as="geometry" />
        </mxCell>
        <mxCell id="66kblcKJQWJvaiCAF5dI-2" value="Клиент" style="swimlane;html=1;startSize=20;horizontal=0;" vertex="1" parent="66kblcKJQWJvaiCAF5dI-1">
          <mxGeometry y="20" width="810" height="70" as="geometry" />
        </mxCell>
        <mxCell id="66kblcKJQWJvaiCAF5dI-17" value="" style="points=[[0.145,0.145,0],[0.5,0,0],[0.855,0.145,0],[1,0.5,0],[0.855,0.855,0],[0.5,1,0],[0.145,0.855,0],[0,0.5,0]];shape=mxgraph.bpmn.event;html=1;verticalLabelPosition=bottom;labelBackgroundColor=#ffffff;verticalAlign=top;align=center;perimeter=ellipsePerimeter;outlineConnect=0;aspect=fixed;outline=boundInt;symbol=message;" vertex="1" parent="66kblcKJQWJvaiCAF5dI-2">
          <mxGeometry x="440" y="30" width="30" height="30" as="geometry" />
        </mxCell>
        <mxCell id="66kblcKJQWJvaiCAF5dI-3" value="Оператор" style="swimlane;html=1;startSize=20;horizontal=0;" vertex="1" parent="66kblcKJQWJvaiCAF5dI-1">
          <mxGeometry y="90" width="810" height="150" as="geometry" />
        </mxCell>
        <mxCell id="66kblcKJQWJvaiCAF5dI-7" style="edgeStyle=orthogonalEdgeStyle;rounded=0;orthogonalLoop=1;jettySize=auto;html=1;dashed=1;dashPattern=8 8;entryX=0.5;entryY=0;entryDx=0;entryDy=0;entryPerimeter=0;" edge="1" parent="66kblcKJQWJvaiCAF5dI-3" target="66kblcKJQWJvaiCAF5dI-6">
          <mxGeometry relative="1" as="geometry">
            <mxPoint x="55" y="-20" as="targetPoint" />
            <mxPoint x="55" y="20" as="sourcePoint" />
          </mxGeometry>
        </mxCell>
        <mxCell id="66kblcKJQWJvaiCAF5dI-6" value="" style="points=[[0.145,0.145,0],[0.5,0,0],[0.855,0.145,0],[1,0.5,0],[0.855,0.855,0],[0.5,1,0],[0.145,0.855,0],[0,0.5,0]];shape=mxgraph.bpmn.event;html=1;verticalLabelPosition=bottom;labelBackgroundColor=#ffffff;verticalAlign=top;align=center;perimeter=ellipsePerimeter;outlineConnect=0;aspect=fixed;outline=standard;symbol=message;" vertex="1" parent="66kblcKJQWJvaiCAF5dI-3">
          <mxGeometry x="40" y="60" width="30" height="30" as="geometry" />
        </mxCell>
        <mxCell id="66kblcKJQWJvaiCAF5dI-8" value="Обработка&lt;br&gt;заявки" style="points=[[0.25,0,0],[0.5,0,0],[0.75,0,0],[1,0.25,0],[1,0.5,0],[1,0.75,0],[0.75,1,0],[0.5,1,0],[0.25,1,0],[0,0.75,0],[0,0.5,0],[0,0.25,0]];shape=mxgraph.bpmn.task;whiteSpace=wrap;rectStyle=rounded;size=10;html=1;container=1;expand=0;collapsible=0;taskMarker=abstract;" vertex="1" parent="66kblcKJQWJvaiCAF5dI-3">
          <mxGeometry x="100" y="60" width="70" height="30" as="geometry" />
        </mxCell>
        <mxCell id="66kblcKJQWJvaiCAF5dI-9" value="Написать клиенту" style="points=[[0.25,0,0],[0.5,0,0],[0.75,0,0],[1,0.25,0],[1,0.5,0],[1,0.75,0],[0.75,1,0],[0.5,1,0],[0.25,1,0],[0,0.75,0],[0,0.5,0],[0,0.25,0]];shape=mxgraph.bpmn.task;whiteSpace=wrap;rectStyle=rounded;size=10;html=1;container=1;expand=0;collapsible=0;taskMarker=abstract;" vertex="1" parent="66kblcKJQWJvaiCAF5dI-3">
          <mxGeometry x="270" y="20" width="70" height="30" as="geometry" />
        </mxCell>
        <mxCell id="66kblcKJQWJvaiCAF5dI-10" value="Позвонить&lt;br&gt;клиенту" style="points=[[0.25,0,0],[0.5,0,0],[0.75,0,0],[1,0.25,0],[1,0.5,0],[1,0.75,0],[0.75,1,0],[0.5,1,0],[0.25,1,0],[0,0.75,0],[0,0.5,0],[0,0.25,0]];shape=mxgraph.bpmn.task;whiteSpace=wrap;rectStyle=rounded;size=10;html=1;container=1;expand=0;collapsible=0;taskMarker=abstract;" vertex="1" parent="66kblcKJQWJvaiCAF5dI-3">
          <mxGeometry x="270" y="100" width="70" height="30" as="geometry" />
        </mxCell>
        <mxCell id="66kblcKJQWJvaiCAF5dI-11" value="" style="points=[[0.25,0.25,0],[0.5,0,0],[0.75,0.25,0],[1,0.5,0],[0.75,0.75,0],[0.5,1,0],[0.25,0.75,0],[0,0.5,0]];shape=mxgraph.bpmn.gateway2;html=1;verticalLabelPosition=bottom;labelBackgroundColor=#ffffff;verticalAlign=top;align=center;perimeter=rhombusPerimeter;outlineConnect=0;outline=end;symbol=general;" vertex="1" parent="66kblcKJQWJvaiCAF5dI-3">
          <mxGeometry x="200" y="50" width="50" height="50" as="geometry" />
        </mxCell>
        <mxCell id="66kblcKJQWJvaiCAF5dI-12" value="" style="points=[[0.25,0.25,0],[0.5,0,0],[0.75,0.25,0],[1,0.5,0],[0.75,0.75,0],[0.5,1,0],[0.25,0.75,0],[0,0.5,0]];shape=mxgraph.bpmn.gateway2;html=1;verticalLabelPosition=bottom;labelBackgroundColor=#ffffff;verticalAlign=top;align=center;perimeter=rhombusPerimeter;outlineConnect=0;outline=end;symbol=general;" vertex="1" parent="66kblcKJQWJvaiCAF5dI-3">
          <mxGeometry x="350" y="50" width="50" height="50" as="geometry" />
        </mxCell>
        <mxCell id="66kblcKJQWJvaiCAF5dI-13" value="Уточнить запись" style="points=[[0.25,0,0],[0.5,0,0],[0.75,0,0],[1,0.25,0],[1,0.5,0],[1,0.75,0],[0.75,1,0],[0.5,1,0],[0.25,1,0],[0,0.75,0],[0,0.5,0],[0,0.25,0]];shape=mxgraph.bpmn.task;whiteSpace=wrap;rectStyle=rounded;size=10;html=1;container=1;expand=0;collapsible=0;taskMarker=abstract;" vertex="1" parent="66kblcKJQWJvaiCAF5dI-3">
          <mxGeometry x="420" y="60" width="70" height="30" as="geometry" />
        </mxCell>
        <mxCell id="66kblcKJQWJvaiCAF5dI-18" value="" style="points=[[0.145,0.145,0],[0.5,0,0],[0.855,0.145,0],[1,0.5,0],[0.855,0.855,0],[0.5,1,0],[0.145,0.855,0],[0,0.5,0]];shape=mxgraph.bpmn.event;html=1;verticalLabelPosition=bottom;labelBackgroundColor=#ffffff;verticalAlign=top;align=center;perimeter=ellipsePerimeter;outlineConnect=0;aspect=fixed;outline=throwing;symbol=message;" vertex="1" parent="66kblcKJQWJvaiCAF5dI-3">
          <mxGeometry x="530" y="55" width="40" height="40" as="geometry" />
        </mxCell>
        <mxCell id="66kblcKJQWJvaiCAF5dI-39" style="edgeStyle=orthogonalEdgeStyle;rounded=0;orthogonalLoop=1;jettySize=auto;html=1;exitX=0.5;exitY=1;exitDx=0;exitDy=0;exitPerimeter=0;entryX=1;entryY=0.5;entryDx=0;entryDy=0;dashed=1;dashPattern=8 8;" edge="1" parent="66kblcKJQWJvaiCAF5dI-3" source="66kblcKJQWJvaiCAF5dI-20" target="66kblcKJQWJvaiCAF5dI-37">
          <mxGeometry relative="1" as="geometry" />
        </mxCell>
        <mxCell id="66kblcKJQWJvaiCAF5dI-20" value="Внести данные в CRM" style="points=[[0.25,0,0],[0.5,0,0],[0.75,0,0],[1,0.25,0],[1,0.5,0],[1,0.75,0],[0.75,1,0],[0.5,1,0],[0.25,1,0],[0,0.75,0],[0,0.5,0],[0,0.25,0]];shape=mxgraph.bpmn.task;whiteSpace=wrap;rectStyle=rounded;size=10;html=1;container=1;expand=0;collapsible=0;taskMarker=abstract;" vertex="1" parent="66kblcKJQWJvaiCAF5dI-3">
          <mxGeometry x="620" y="60" width="100" height="30" as="geometry" />
        </mxCell>
        <mxCell id="66kblcKJQWJvaiCAF5dI-37" value="" style="shape=datastore;html=1;labelPosition=center;verticalLabelPosition=bottom;align=center;verticalAlign=top;" vertex="1" parent="66kblcKJQWJvaiCAF5dI-3">
          <mxGeometry x="560" y="110" width="50" height="40" as="geometry" />
        </mxCell>
        <mxCell id="66kblcKJQWJvaiCAF5dI-38" style="edgeStyle=orthogonalEdgeStyle;rounded=0;orthogonalLoop=1;jettySize=auto;html=1;exitX=1;exitY=0.5;exitDx=0;exitDy=0;exitPerimeter=0;entryX=0;entryY=0.5;entryDx=0;entryDy=0;entryPerimeter=0;" edge="1" parent="66kblcKJQWJvaiCAF5dI-3" source="66kblcKJQWJvaiCAF5dI-18" target="66kblcKJQWJvaiCAF5dI-20">
          <mxGeometry relative="1" as="geometry" />
        </mxCell>
        <mxCell id="66kblcKJQWJvaiCAF5dI-56" style="edgeStyle=orthogonalEdgeStyle;rounded=0;orthogonalLoop=1;jettySize=auto;html=1;exitX=0.5;exitY=0;exitDx=0;exitDy=0;exitPerimeter=0;dashed=1;dashPattern=8 8;" edge="1" parent="66kblcKJQWJvaiCAF5dI-3" source="66kblcKJQWJvaiCAF5dI-41">
          <mxGeometry relative="1" as="geometry">
            <mxPoint x="781" as="targetPoint" />
          </mxGeometry>
        </mxCell>
        <mxCell id="66kblcKJQWJvaiCAF5dI-41" value="" style="points=[[0.145,0.145,0],[0.5,0,0],[0.855,0.145,0],[1,0.5,0],[0.855,0.855,0],[0.5,1,0],[0.145,0.855,0],[0,0.5,0]];shape=mxgraph.bpmn.event;html=1;verticalLabelPosition=bottom;labelBackgroundColor=#ffffff;verticalAlign=top;align=center;perimeter=ellipsePerimeter;outlineConnect=0;aspect=fixed;outline=end;symbol=message;" vertex="1" parent="66kblcKJQWJvaiCAF5dI-3">
          <mxGeometry x="760" y="53.75" width="42.5" height="42.5" as="geometry" />
        </mxCell>
        <mxCell id="66kblcKJQWJvaiCAF5dI-42" style="edgeStyle=orthogonalEdgeStyle;rounded=0;orthogonalLoop=1;jettySize=auto;html=1;exitX=1;exitY=0.5;exitDx=0;exitDy=0;exitPerimeter=0;entryX=0;entryY=0.5;entryDx=0;entryDy=0;entryPerimeter=0;" edge="1" parent="66kblcKJQWJvaiCAF5dI-3" source="66kblcKJQWJvaiCAF5dI-20" target="66kblcKJQWJvaiCAF5dI-41">
          <mxGeometry relative="1" as="geometry" />
        </mxCell>
        <mxCell id="66kblcKJQWJvaiCAF5dI-46" style="edgeStyle=orthogonalEdgeStyle;rounded=0;orthogonalLoop=1;jettySize=auto;html=1;exitX=1;exitY=0.5;exitDx=0;exitDy=0;exitPerimeter=0;entryX=0;entryY=0.5;entryDx=0;entryDy=0;entryPerimeter=0;" edge="1" parent="66kblcKJQWJvaiCAF5dI-3" source="66kblcKJQWJvaiCAF5dI-6" target="66kblcKJQWJvaiCAF5dI-8">
          <mxGeometry relative="1" as="geometry" />
        </mxCell>
        <mxCell id="66kblcKJQWJvaiCAF5dI-47" style="edgeStyle=orthogonalEdgeStyle;rounded=0;orthogonalLoop=1;jettySize=auto;html=1;exitX=1;exitY=0.5;exitDx=0;exitDy=0;exitPerimeter=0;entryX=0;entryY=0.5;entryDx=0;entryDy=0;entryPerimeter=0;" edge="1" parent="66kblcKJQWJvaiCAF5dI-3" source="66kblcKJQWJvaiCAF5dI-8" target="66kblcKJQWJvaiCAF5dI-11">
          <mxGeometry relative="1" as="geometry" />
        </mxCell>
        <mxCell id="66kblcKJQWJvaiCAF5dI-48" style="edgeStyle=orthogonalEdgeStyle;rounded=0;orthogonalLoop=1;jettySize=auto;html=1;exitX=0.5;exitY=0;exitDx=0;exitDy=0;exitPerimeter=0;entryX=0;entryY=0.25;entryDx=0;entryDy=0;entryPerimeter=0;" edge="1" parent="66kblcKJQWJvaiCAF5dI-3" source="66kblcKJQWJvaiCAF5dI-11" target="66kblcKJQWJvaiCAF5dI-9">
          <mxGeometry relative="1" as="geometry">
            <mxPoint x="225" y="30" as="targetPoint" />
          </mxGeometry>
        </mxCell>
        <mxCell id="66kblcKJQWJvaiCAF5dI-16" style="edgeStyle=orthogonalEdgeStyle;rounded=0;orthogonalLoop=1;jettySize=auto;html=1;exitX=0.5;exitY=0;exitDx=0;exitDy=0;exitPerimeter=0;entryX=0.5;entryY=1;entryDx=0;entryDy=0;entryPerimeter=0;dashed=1;dashPattern=8 8;" edge="1" parent="66kblcKJQWJvaiCAF5dI-3" source="66kblcKJQWJvaiCAF5dI-13">
          <mxGeometry relative="1" as="geometry">
            <mxPoint x="455" y="10" as="targetPoint" />
          </mxGeometry>
        </mxCell>
        <mxCell id="66kblcKJQWJvaiCAF5dI-19" value="" style="dashed=1;dashPattern=8 4;endArrow=blockThin;endFill=1;startArrow=oval;startFill=0;endSize=6;startSize=4;html=1;rounded=0;edgeStyle=orthogonalEdgeStyle;entryX=0.5;entryY=0;entryDx=0;entryDy=0;entryPerimeter=0;" edge="1" parent="66kblcKJQWJvaiCAF5dI-3" target="66kblcKJQWJvaiCAF5dI-18">
          <mxGeometry width="160" relative="1" as="geometry">
            <mxPoint x="550" as="sourcePoint" />
            <mxPoint x="600" y="80" as="targetPoint" />
          </mxGeometry>
        </mxCell>
        <mxCell id="66kblcKJQWJvaiCAF5dI-49" style="edgeStyle=orthogonalEdgeStyle;rounded=0;orthogonalLoop=1;jettySize=auto;html=1;exitX=0.5;exitY=1;exitDx=0;exitDy=0;exitPerimeter=0;entryX=0;entryY=0.75;entryDx=0;entryDy=0;entryPerimeter=0;" edge="1" parent="66kblcKJQWJvaiCAF5dI-3" source="66kblcKJQWJvaiCAF5dI-11" target="66kblcKJQWJvaiCAF5dI-10">
          <mxGeometry relative="1" as="geometry" />
        </mxCell>
        <mxCell id="66kblcKJQWJvaiCAF5dI-50" style="edgeStyle=orthogonalEdgeStyle;rounded=0;orthogonalLoop=1;jettySize=auto;html=1;exitX=1;exitY=0.5;exitDx=0;exitDy=0;exitPerimeter=0;entryX=0.5;entryY=1;entryDx=0;entryDy=0;entryPerimeter=0;" edge="1" parent="66kblcKJQWJvaiCAF5dI-3" source="66kblcKJQWJvaiCAF5dI-10" target="66kblcKJQWJvaiCAF5dI-12">
          <mxGeometry relative="1" as="geometry" />
        </mxCell>
        <mxCell id="66kblcKJQWJvaiCAF5dI-51" style="edgeStyle=orthogonalEdgeStyle;rounded=0;orthogonalLoop=1;jettySize=auto;html=1;exitX=1;exitY=0.5;exitDx=0;exitDy=0;exitPerimeter=0;entryX=0.5;entryY=0;entryDx=0;entryDy=0;entryPerimeter=0;" edge="1" parent="66kblcKJQWJvaiCAF5dI-3" source="66kblcKJQWJvaiCAF5dI-9" target="66kblcKJQWJvaiCAF5dI-12">
          <mxGeometry relative="1" as="geometry" />
        </mxCell>
        <mxCell id="66kblcKJQWJvaiCAF5dI-52" style="edgeStyle=orthogonalEdgeStyle;rounded=0;orthogonalLoop=1;jettySize=auto;html=1;exitX=1;exitY=0.5;exitDx=0;exitDy=0;exitPerimeter=0;entryX=0;entryY=0.5;entryDx=0;entryDy=0;entryPerimeter=0;" edge="1" parent="66kblcKJQWJvaiCAF5dI-3" source="66kblcKJQWJvaiCAF5dI-12" target="66kblcKJQWJvaiCAF5dI-13">
          <mxGeometry relative="1" as="geometry" />
        </mxCell>
        <mxCell id="66kblcKJQWJvaiCAF5dI-53" style="edgeStyle=orthogonalEdgeStyle;rounded=0;orthogonalLoop=1;jettySize=auto;html=1;exitX=1;exitY=0.5;exitDx=0;exitDy=0;exitPerimeter=0;entryX=0;entryY=0.5;entryDx=0;entryDy=0;entryPerimeter=0;" edge="1" parent="66kblcKJQWJvaiCAF5dI-3" source="66kblcKJQWJvaiCAF5dI-13" target="66kblcKJQWJvaiCAF5dI-18">
          <mxGeometry relative="1" as="geometry" />
        </mxCell>
      </root>
    </mxGraphModel>
  </diagram>
</mxfile>
